<svg width="10" height="10" viewBox="0 0 10 10" fill="none" xmlns="http://www.w3.org/2000/svg">
<g clip-path="url(#clip0_10_160)">
<path d="M4.99995 0C3.08648 0 1.52979 1.55692 1.52979 3.47045C1.52979 5.31237 4.67833 9.61578 4.81239 9.79801L4.93751 9.96828C4.95214 9.9883 4.97544 10 4.99995 10C5.02484 10 5.04799 9.9883 5.06278 9.96828L5.18782 9.79801C5.32196 9.61578 8.47042 5.31237 8.47042 3.47045C8.47042 1.55692 6.91348 0 4.99995 0ZM4.99995 2.22734C5.68556 2.22734 6.24306 2.78487 6.24306 3.47045C6.24306 4.15567 5.68553 4.71355 4.99995 4.71355C4.31475 4.71355 3.75685 4.15567 3.75685 3.47045C3.75685 2.78487 4.31473 2.22734 4.99995 2.22734Z" fill="#111235"/>
</g>
<defs>
<clipPath id="clip0_10_160">
<rect width="10" height="10" fill="white"/>
</clipPath>
</defs>
</svg>
