<svg width="10" height="10" viewBox="0 0 10 10" fill="none" xmlns="http://www.w3.org/2000/svg">
<g clip-path="url(#clip0_19_63)">
<path d="M4.99463 0.0549316C2.27101 0.0549316 0.0551758 2.27077 0.0551758 4.99438C0.0551758 7.718 2.27101 9.93384 4.99463 9.93384C7.71824 9.93384 9.93408 7.718 9.93408 4.99438C9.93408 2.27077 7.71824 0.0549316 4.99463 0.0549316ZM7.3075 5.48833H4.99463C4.72186 5.48833 4.50068 5.26715 4.50068 4.99438V2.68151C4.50068 2.40875 4.72186 2.18757 4.99463 2.18757C5.2674 2.18757 5.48857 2.40875 5.48857 2.68151V4.50044H7.3075C7.58027 4.50044 7.80145 4.72162 7.80145 4.99438C7.80145 5.26715 7.58038 5.48833 7.3075 5.48833Z" fill="#111235"/>
</g>
<defs>
<clipPath id="clip0_19_63">
<rect width="10" height="10" fill="white"/>
</clipPath>
</defs>
</svg>
